<?xml version="1.0" encoding="utf-8"?>
<!-- Generator: Adobe Illustrator 16.0.0, SVG Export Plug-In . SVG Version: 6.00 Build 0)  -->
<!DOCTYPE svg PUBLIC "-//W3C//DTD SVG 1.1//EN" "http://www.w3.org/Graphics/SVG/1.1/DTD/svg11.dtd">
<svg version="1.1" id="Calque_1" xmlns="http://www.w3.org/2000/svg" xmlns:xlink="http://www.w3.org/1999/xlink" x="0px" y="0px"
	 width="106px" height="86px" viewBox="0 0 106 86" enable-background="new 0 0 106 86" xml:space="preserve">
<g>
	<g>
		<path fill="#5E5F5F" d="M63.431,12.178H28.729v34.705h34.702V12.178L63.431,12.178z M34.08,39.788
			c1.25-4.409,4.078-12.125,6.585-12.125c0.374,0,0.76,0.2,1.153,0.591c3.335,3.337,5.125,8.913,5.82,11.535L34.08,39.788
			L34.08,39.788z M60.472,39.788h-0.653c0,0-1.239,0.05-1.261,0H49.62c0.469-1.585,1.954-6.001,4.111-6.553
			c0.119-0.031,0.236-0.046,0.353-0.046c1.708,0,3.201,3.341,4.473,6.599h1.261c-0.16-0.44-0.563-1.61-0.642-1.803
			c-1.293-3.15-2.828-6.037-5.092-6.037c-0.214,0-0.438,0.027-0.657,0.084c-2.145,0.549-3.605,3.432-4.456,5.753l-0.329,0.903
			l-0.286-0.918c-0.977-3.134-2.751-7.482-5.663-10.396c-0.631-0.631-1.315-0.953-2.03-0.953c-3.812,0-6.834,9.602-7.873,13.367
			h-1.102V14.392h28.784V39.788L60.472,39.788z"/>
	</g>
	<g>
		<path fill="#5E5F5F" d="M53.685,26.163c2.233,0,4.05-1.819,4.05-4.055c0-2.233-1.815-4.05-4.05-4.05
			c-2.235,0-4.053,1.817-4.053,4.05C49.633,24.344,51.45,26.163,53.685,26.163z M53.685,19.278c1.56,0,2.831,1.27,2.831,2.831
			c0,1.563-1.271,2.835-2.831,2.835c-1.562,0-2.833-1.272-2.833-2.835C50.852,20.548,52.123,19.278,53.685,19.278z"/>
	</g>
	<g>
		<path fill="#5E5F5F" d="M64.045,49.02c-0.045-0.303-0.095-0.601-0.144-0.898h-1.265c0.143,0.811,0.262,1.658,0.369,2.498
			l1.221,0.309C64.178,50.457,64.072,49.228,64.045,49.02z"/>
	</g>
	<g>
		<path fill="#5E5F5F" d="M74.443,25.022l-10.141-2.541v2.283l6.73,1.687l-6.174,24.633l-0.637-0.158c0,0-1.212-0.253-1.22-0.309
			l-8.668-2.17c0.057-0.099,0.124-0.211,0.197-0.33H32.879l-0.534,2.131l33.663,8.438L74.443,25.022z"/>
	</g>
	<g>
		<path fill="#5E5F5F" d="M66.504,33.27c0.479-1.906-0.486-3.837-2.199-4.646v1.423c0.859,0.667,1.299,1.803,1.018,2.926
			c-0.158,0.64-0.533,1.164-1.018,1.539v1.415C65.357,35.425,66.197,34.49,66.504,33.27z"/>
	</g>
	<g>
		<path fill="#5E5F5F" d="M73.227,33.112l-0.531,2.149l4.389,1.119l-6.273,24.609l-0.635-0.162c0,0-1.213-0.256-1.221-0.313
			l-2.361-0.604l-26.585-6.598l-1.709,6.704l33.626,8.575l8.574-33.63L73.227,33.112z"/>
	</g>
	<g>
		<path fill="#5E5F5F" d="M70.002,58.921c-0.318-2.262-0.783-4.414-1.709-5.77l-0.449,1.82c0.547,1.458,0.861,3.521,1.111,5.542
			l1.221,0.313C70.131,60.36,70.029,59.126,70.002,58.921z"/>
	</g>
	<g>
		<path fill="#5E5F5F" d="M70.471,44.303l-0.404,1.645c1.174-0.459,2.123-1.453,2.457-2.767c0.342-1.339-0.033-2.691-0.875-3.661
			l-0.408,1.656c0.201,0.526,0.252,1.115,0.104,1.702C71.195,43.451,70.885,43.939,70.471,44.303z"/>
	</g>
</g>
<circle fill="#FFFFFF" stroke="#5E5F5F" stroke-width="3" stroke-miterlimit="10" cx="32.345" cy="53.152" r="15.259"/>
<line fill="none" stroke="#5E5F5F" stroke-width="3" stroke-miterlimit="10" x1="22.376" y1="53.15" x2="42.314" y2="53.15"/>
<line fill="none" stroke="#5E5F5F" stroke-width="3" stroke-miterlimit="10" x1="32.345" y1="63.12" x2="32.345" y2="43.182"/>
</svg>
