<?xml version="1.0" encoding="utf-8"?>
<!-- Generator: Adobe Illustrator 16.0.0, SVG Export Plug-In . SVG Version: 6.00 Build 0)  -->
<!DOCTYPE svg PUBLIC "-//W3C//DTD SVG 1.1//EN" "http://www.w3.org/Graphics/SVG/1.1/DTD/svg11.dtd">
<svg version="1.1" id="Calque_1" xmlns="http://www.w3.org/2000/svg" xmlns:xlink="http://www.w3.org/1999/xlink" x="0px" y="0px"
	 width="106px" height="86px" viewBox="0 0 106 86" enable-background="new 0 0 106 86" xml:space="preserve">
<g>
	<g>
		<path fill="#5E5F5F" d="M63.432,12.178H28.729v34.705h34.703V12.178L63.432,12.178z M34.08,39.788
			c1.25-4.409,4.078-12.125,6.585-12.125c0.374,0,0.76,0.2,1.153,0.591c3.335,3.337,5.125,8.913,5.82,11.535L34.08,39.788
			L34.08,39.788z M60.473,39.788h-0.654c0,0-1.238,0.05-1.26,0H49.62c0.469-1.585,1.954-6.001,4.11-6.553
			c0.119-0.031,0.236-0.046,0.354-0.046c1.708,0,3.201,3.341,4.473,6.599h1.262c-0.16-0.44-0.563-1.61-0.643-1.803
			c-1.293-3.15-2.828-6.037-5.092-6.037c-0.214,0-0.438,0.027-0.657,0.084c-2.145,0.549-3.605,3.432-4.456,5.753l-0.329,0.903
			l-0.286-0.918c-0.977-3.134-2.751-7.482-5.663-10.396c-0.631-0.631-1.315-0.953-2.03-0.953c-3.812,0-6.834,9.602-7.873,13.367
			h-1.102V14.392h28.785V39.788L60.473,39.788z"/>
	</g>
	<g>
		<path fill="#5E5F5F" d="M53.686,26.163c2.232,0,4.049-1.819,4.049-4.055c0-2.233-1.814-4.05-4.049-4.05
			c-2.235,0-4.054,1.817-4.054,4.05C49.633,24.344,51.45,26.163,53.686,26.163z M53.686,19.278c1.56,0,2.83,1.27,2.83,2.831
			c0,1.563-1.271,2.835-2.83,2.835c-1.563,0-2.833-1.272-2.833-2.835C50.852,20.548,52.123,19.278,53.686,19.278z"/>
	</g>
	<g>
		<path fill="#5E5F5F" d="M64.045,49.02C64,48.717,63.95,48.419,63.9,48.122h-1.264c0.143,0.812,0.262,1.657,0.368,2.498l1.222,0.31
			C64.178,50.457,64.072,49.229,64.045,49.02z"/>
	</g>
	<g>
		<path fill="#5E5F5F" d="M74.443,25.022l-10.142-2.541v2.283l6.73,1.687l-6.175,24.633l-0.637-0.158c0,0-1.212-0.253-1.22-0.309
			l-8.668-2.17c0.058-0.1,0.124-0.211,0.196-0.33h-21.65l-0.534,2.131l33.663,8.438L74.443,25.022z"/>
	</g>
	<g>
		<path fill="#5E5F5F" d="M66.504,33.27c0.479-1.906-0.486-3.837-2.199-4.646v1.423c0.859,0.667,1.299,1.803,1.019,2.926
			c-0.158,0.64-0.533,1.164-1.019,1.539v1.415C65.357,35.425,66.197,34.49,66.504,33.27z"/>
	</g>
	<g>
		<path fill="#5E5F5F" d="M73.227,33.112l-0.531,2.149l4.39,1.119l-6.272,24.608l-0.636-0.161c0,0-1.213-0.257-1.221-0.313
			l-2.36-0.604L40.01,53.313l-1.709,6.703l33.626,8.575l8.574-33.63L73.227,33.112z"/>
	</g>
	<g>
		<path fill="#5E5F5F" d="M70.002,58.921c-0.318-2.262-0.783-4.414-1.709-5.771l-0.449,1.82c0.547,1.459,0.861,3.521,1.111,5.543
			l1.221,0.313C70.131,60.359,70.029,59.126,70.002,58.921z"/>
	</g>
	<g>
		<path fill="#5E5F5F" d="M70.471,44.303l-0.404,1.645c1.175-0.459,2.123-1.452,2.457-2.766c0.343-1.339-0.032-2.691-0.875-3.661
			l-0.407,1.656c0.2,0.526,0.252,1.115,0.104,1.702C71.195,43.451,70.885,43.939,70.471,44.303z"/>
	</g>
</g>
<path fill="none" stroke="#5E5F5F" stroke-width="3" stroke-miterlimit="10" d="M32.345,43.182"/>
<path fill="none" stroke="#5E5F5F" stroke-width="3" stroke-miterlimit="10" d="M32.345,63.12"/>
</svg>
