<?xml version="1.0" encoding="utf-8"?>
<!-- Generator: Adobe Illustrator 16.0.0, SVG Export Plug-In . SVG Version: 6.00 Build 0)  -->
<!DOCTYPE svg PUBLIC "-//W3C//DTD SVG 1.1//EN" "http://www.w3.org/Graphics/SVG/1.1/DTD/svg11.dtd">
<svg version="1.1" id="Ebene_1" xmlns="http://www.w3.org/2000/svg" xmlns:xlink="http://www.w3.org/1999/xlink" x="0px" y="0px"
	 width="26px" height="26px" viewBox="0 0 26 26" enable-background="new 0 0 26 26" xml:space="preserve">
<path fill="#5817A3" d="M25.718,24.371l-6.295-6.295c1.608-1.912,2.581-4.377,2.581-7.073c0-6.075-4.925-11-11-11
	c-6.075,0-11,4.925-11,11c0,6.075,4.925,11.001,11,11.001c2.696,0,5.161-0.973,7.073-2.582l6.295,6.297
	c0.373,0.371,0.976,0.371,1.347,0C26.09,25.346,26.09,24.744,25.718,24.371z M11.003,20.004c-4.971,0-9-4.029-9-9.001
	c0-4.971,4.029-9,9-9c4.972,0,9,4.029,9,9C20.004,15.975,15.975,20.004,11.003,20.004z"/>
</svg>
