<?xml version="1.0" encoding="utf-8"?>
<!-- Generator: Adobe Illustrator 16.0.0, SVG Export Plug-In . SVG Version: 6.00 Build 0)  -->
<!DOCTYPE svg PUBLIC "-//W3C//DTD SVG 1.1//EN" "http://www.w3.org/Graphics/SVG/1.1/DTD/svg11.dtd">
<svg version="1.1" id="Layer_1" xmlns="http://www.w3.org/2000/svg" xmlns:xlink="http://www.w3.org/1999/xlink" x="0px" y="0px"
	 width="80.333px" height="86.828px" viewBox="219.5 9.672 80.333 86.828" enable-background="new 219.5 9.672 80.333 86.828"
	 xml:space="preserve">
<g>
	<g>
		<path d="M40.818,3.792H6.116v34.705h34.702V3.792L40.818,3.792z M11.467,31.402c1.25-4.409,4.078-12.125,6.585-12.125
			c0.374,0,0.76,0.2,1.153,0.591c3.335,3.337,5.125,8.913,5.82,11.535L11.467,31.402L11.467,31.402z M37.859,31.402h-0.653
			c0,0-1.239,0.05-1.261,0h-8.938c0.469-1.585,1.954-6.001,4.111-6.553c0.119-0.031,0.236-0.046,0.353-0.046
			c1.708,0,3.201,3.341,4.473,6.599h1.261c-0.16-0.44-0.563-1.61-0.642-1.803c-1.293-3.15-2.828-6.037-5.092-6.037
			c-0.214,0-0.438,0.027-0.657,0.084c-2.145,0.549-3.605,3.432-4.456,5.753l-0.329,0.903l-0.286-0.918
			c-0.977-3.134-2.751-7.482-5.663-10.396c-0.631-0.631-1.315-0.953-2.03-0.953c-3.812,0-6.834,9.602-7.873,13.367H9.075V6.006
			h28.784V31.402L37.859,31.402z"/>
	</g>
	<g>
		<path d="M31.072,17.777c2.233,0,4.05-1.819,4.05-4.055c0-2.233-1.815-4.05-4.05-4.05s-4.053,1.817-4.053,4.05
			C27.02,15.958,28.837,17.777,31.072,17.777z M31.072,10.892c1.56,0,2.831,1.27,2.831,2.831c0,1.563-1.271,2.835-2.831,2.835
			c-1.562,0-2.833-1.272-2.833-2.835C28.239,12.162,29.51,10.892,31.072,10.892z"/>
	</g>
	<g>
		<path d="M41.432,40.634c-0.045-0.303-0.095-0.601-0.145-0.899h-1.264c0.143,0.811,0.262,1.658,0.369,2.498l1.221,0.309
			C41.564,42.072,41.46,40.842,41.432,40.634z"/>
	</g>
	<g>
		<path d="M51.83,16.636l-10.141-2.541v2.283l6.732,1.687l-6.175,24.634l-0.636-0.159c0,0-1.213-0.253-1.221-0.308l-8.668-2.17
			c0.057-0.099,0.124-0.211,0.197-0.33H10.266l-0.534,2.131L43.395,50.3L51.83,16.636z"/>
	</g>
	<g>
		<path d="M43.891,24.884c0.479-1.906-0.486-3.837-2.199-4.646v1.423c0.86,0.667,1.299,1.803,1.018,2.926
			c-0.159,0.64-0.533,1.164-1.018,1.539v1.415C42.745,27.039,43.585,26.104,43.891,24.884z"/>
	</g>
	<g>
		<path d="M50.613,24.726l-0.53,2.149l4.388,1.119l-6.273,24.609l-0.635-0.162c0,0-1.213-0.256-1.22-0.312l-2.362-0.604
			l-26.586-6.598l-1.709,6.705l33.627,8.575l8.574-33.63L50.613,24.726z"/>
	</g>
	<g>
		<path d="M47.389,50.535c-0.318-2.262-0.783-4.414-1.709-5.77l-0.449,1.821c0.547,1.458,0.862,3.521,1.112,5.542l1.22,0.313
			C47.518,51.975,47.416,50.74,47.389,50.535z"/>
	</g>
	<g>
		<path d="M47.857,35.917l-0.404,1.644c1.174-0.459,2.124-1.453,2.458-2.766c0.341-1.339-0.033-2.691-0.876-3.661l-0.408,1.656
			c0.202,0.526,0.252,1.116,0.104,1.702C48.583,35.066,48.271,35.553,47.857,35.917z"/>
	</g>
</g>
<circle fill="#FFFFFF" stroke="#000000" stroke-width="3" stroke-miterlimit="10" cx="-32.844" cy="27.542" r="15.259"/>
<line fill="none" stroke="#000000" stroke-width="3" stroke-miterlimit="10" x1="-42.813" y1="27.541" x2="-22.875" y2="27.541"/>
<line fill="none" stroke="#000000" stroke-width="3" stroke-miterlimit="10" x1="-32.844" y1="37.51" x2="-32.844" y2="17.572"/>
<circle fill="#FFFFFF" stroke="#000000" stroke-width="3" stroke-miterlimit="10" cx="256.488" cy="53.087" r="15.259"/>
<line fill="none" stroke="#000000" stroke-width="3" stroke-miterlimit="10" x1="246.521" y1="53.086" x2="266.458" y2="53.086"/>
<line fill="none" stroke="#000000" stroke-width="3" stroke-miterlimit="10" x1="256.489" y1="63.055" x2="256.489" y2="43.117"/>
</svg>
